HIERARCHY
ROOT Hips
{
	OFFSET 0.00000 0.00000 0.00000
	CHANNELS 6 Xposition Yposition Zposition Zrotation Yrotation Xrotation 
	JOINT LHipJoint
	{
		OFFSET 0 0 0
		CHANNELS 3 Zrotation Yrotation Xrotation
		JOINT LeftUpLeg
		{
			OFFSET 1.53927 -1.56553 0.51726
			CHANNELS 3 Zrotation Yrotation Xrotation
			JOINT LeftLeg
			{
				OFFSET 2.38199 -6.54447 0.00000
				CHANNELS 3 Zrotation Yrotation Xrotation
				JOINT LeftFoot
				{
					OFFSET 2.35499 -6.47028 0.00000
					CHANNELS 3 Zrotation Yrotation Xrotation
					JOINT LeftToeBase
					{
						OFFSET 0.13641 -0.37478 1.84251
						CHANNELS 3 Zrotation Yrotation Xrotation
						End Site
						{
							OFFSET 0.00000 -0.00000 0.95212
						}
					}
				}
			}
		}
	}
	JOINT RHipJoint
	{
		OFFSET 0 0 0
		CHANNELS 3 Zrotation Yrotation Xrotation
		JOINT RightUpLeg
		{
			OFFSET -1.43919 -1.56553 0.51726
			CHANNELS 3 Zrotation Yrotation Xrotation
			JOINT RightLeg
			{
				OFFSET -2.34860 -6.45274 0.00000
				CHANNELS 3 Zrotation Yrotation Xrotation
				JOINT RightFoot
				{
					OFFSET -2.25563 -6.19730 0.00000
					CHANNELS 3 Zrotation Yrotation Xrotation
					JOINT RightToeBase
					{
						OFFSET -0.19755 -0.54277 1.84912
						CHANNELS 3 Zrotation Yrotation Xrotation
						End Site
						{
							OFFSET -0.00000 -0.00000 0.97032
						}
					}
				}
			}
		}
	}
	JOINT LowerBack
	{
		OFFSET 0 0 0
		CHANNELS 3 Zrotation Yrotation Xrotation
		JOINT Spine
		{
			OFFSET -0.06402 1.88434 -0.00445
			CHANNELS 3 Zrotation Yrotation Xrotation
			JOINT Spine1
			{
				OFFSET 0.00756 1.88511 0.04237
				CHANNELS 3 Zrotation Yrotation Xrotation
				JOINT Neck
				{
					OFFSET 0 0 0
					CHANNELS 3 Zrotation Yrotation Xrotation
					JOINT Neck1
					{
						OFFSET -0.06230 1.34710 0.03308
						CHANNELS 3 Zrotation Yrotation Xrotation
						JOINT Head
						{
							OFFSET -0.02442 1.34501 -0.13654
							CHANNELS 3 Zrotation Yrotation Xrotation
							End Site
							{
								OFFSET -0.00508 1.35584 -0.05075
							}
						}
					}
				}
				JOINT LeftShoulder
				{
					OFFSET 0 0 0
					CHANNELS 3 Zrotation Yrotation Xrotation
					JOINT LeftArm
					{
						OFFSET 2.76911 0.54460 0.39412
						CHANNELS 3 Zrotation Yrotation Xrotation
						JOINT LeftForeArm
						{
							OFFSET 4.40919 -0.00000 -0.00000
							CHANNELS 3 Zrotation Yrotation Xrotation
							JOINT LeftHand
							{
								OFFSET 3.03857 -0.00000 -0.00000
								CHANNELS 3 Zrotation Yrotation Xrotation
								JOINT LeftFingerBase
								{
									OFFSET 0 0 0
									CHANNELS 3 Zrotation Yrotation Xrotation
									JOINT LeftHandIndex1
									{
										OFFSET 0.52321 -0.00000 -0.00000
										CHANNELS 3 Zrotation Yrotation Xrotation
										End Site
										{
											OFFSET 0.42182 -0.00000 -0.00000
										}
									}
								}
								JOINT LThumb
								{
									OFFSET 0 0 0
									CHANNELS 3 Zrotation Yrotation Xrotation
									End Site
									{
										OFFSET 0.42826 -0.00000 0.42826
									}
								}
							}
						}
					}
				}
				JOINT RightShoulder
				{
					OFFSET 0 0 0
					CHANNELS 3 Zrotation Yrotation Xrotation
					JOINT RightArm
					{
						OFFSET -2.99050 0.75949 0.48975
						CHANNELS 3 Zrotation Yrotation Xrotation
						JOINT RightForeArm
						{
							OFFSET -4.61969 -0.00000 -0.00000
							CHANNELS 3 Zrotation Yrotation Xrotation
							JOINT RightHand
							{
								OFFSET -3.09382 -0.00000 -0.00000
								CHANNELS 3 Zrotation Yrotation Xrotation
								JOINT RightFingerBase
								{
									OFFSET 0 0 0
									CHANNELS 3 Zrotation Yrotation Xrotation
									JOINT RightHandIndex1
									{
										OFFSET -0.50090 -0.00000 -0.00000
										CHANNELS 3 Zrotation Yrotation Xrotation
										End Site
										{
											OFFSET -0.40384 -0.00000 -0.00000
										}
									}
								}
								JOINT RThumb
								{
									OFFSET 0 0 0
									CHANNELS 3 Zrotation Yrotation Xrotation
									End Site
									{
										OFFSET -0.41000 -0.00000 0.41000
									}
								}
							}
						}
					}
				}
			}
		}
	}
}
MOTION
Frames: 15
Frame Time: .0083333
5.1548 16.2351 -0.3809 0 0 0 0 0 0 -21 0 0 0 0 0 0 0 0 0 0 0 0 0 0 21 0 0 0 0 0 0 0 0 0 0 0 0 0 0 0 0 0 0 0 0 0 0 -16 0 0 21 0 0 11 0 0 0 -8 0 0 0 0 0 0 0 0 0 0 0 0 0 0 0 0 0 0 0 0 8 0 0 0 0 0 0 0 0 0 0 0 0 0 0 0 0 0
5.1548 16.2351 -0.3809 83.4977 -88.3717 -72.8529 0.0000 0.0000 0.0000 -16.2501 -29.5642 -3.7829 1.0904 6.6363 18.6421 -1.6412 23.2876 -17.3476 0.0114 0.6881 1.8909 0.0000 0.0000 0.0000 13.5303 22.8775 -8.8491 -1.2720 -7.1482 20.1552 -0.4182 -13.4763 -23.4424 -0.1111 -2.1487 5.9166 -4.4514 -1.3006 -2.2236 0.8293 -1.7567 -3.5809 3.3448 -0.7840 -2.2855 -4.4329 -5.6910 -0.8127 -2.8416 -7.6077 19.2109 -0.6022 -4.4147 6.0220 -0.0000 0.0000 0.0000 -94.3859 15.4596 12.1195 22.7914 -33.8599 -7.0217 -0.0000 -0.0000 11.5333 24.3119 -10.4524 -4.6855 -7.1250 0.0000 -0.0000 -1.9316 18.5396 1.2179 -0.0000 0.0000 0.0000 88.4608 -18.1901 29.2205 -22.0944 33.0836 -6.6373 0.0000 0.0000 0.8419 -16.6183 -45.8556 12.0885 7.1250 -0.0000 -0.0000 39.7813 -73.8824 -28.2569
5.1592 16.2365 -0.3890 79.8894 -88.4471 -69.1754 0.0000 0.0000 0.0000 -16.0436 -29.7047 -3.9187 1.0965 6.6542 18.6948 -1.6290 23.2594 -17.4732 0.0145 0.7765 2.1340 0.0000 0.0000 0.0000 13.6409 22.8631 -8.9524 -1.2725 -7.1495 20.1590 -0.4080 -13.5551 -23.4401 -0.1076 -2.1154 5.8248 -4.3589 -1.3140 -2.2577 0.8858 -1.7701 -3.5273 3.3493 -0.7943 -2.2101 -4.4505 -5.6110 -0.8268 -2.8884 -7.4902 19.2638 -0.6092 -4.3640 6.0391 0.0000 0.0000 0.0000 -94.4566 15.5502 11.9343 23.0671 -34.1621 -7.1759 -0.0000 -0.0000 11.5314 24.0229 -9.9528 -4.4051 -7.1250 0.0000 -0.0000 -2.1144 19.1087 1.3066 0.0000 0.0000 0.0000 88.2593 -18.1388 29.5214 -22.1096 33.1007 -6.6456 0.0000 0.0000 0.8125 -16.6237 -45.9438 12.1101 7.1250 -0.0000 -0.0000 40.0082 -73.9449 -28.4805
5.1614 16.2382 -0.3975 78.6326 -88.4026 -67.8642 0.0000 0.0000 0.0000 -16.0044 -29.8697 -3.9820 1.0933 6.6448 18.6671 -1.6130 23.2378 -17.6882 0.0232 0.9842 2.7053 0.0000 0.0000 0.0000 13.6102 22.8475 -9.0505 -1.2788 -7.1665 20.2095 -0.4073 -13.5969 -23.4816 -0.0957 -1.9950 5.4918 -4.2963 -1.2114 -2.2469 0.8410 -1.6312 -3.4557 3.2680 -0.7285 -2.1569 -4.5357 -5.6947 -0.9463 -2.8659 -7.5923 19.3419 -0.6008 -4.4176 6.0903 -0.0000 0.0000 0.0000 -94.2874 15.4902 12.2199 23.1892 -34.2951 -7.2446 -0.0000 -0.0000 11.2110 23.7961 -9.9493 -4.3569 -7.1250 0.0000 -0.0000 -2.2754 19.1319 1.4050 -0.0000 0.0000 0.0000 88.3408 -18.1016 29.0367 -22.1503 33.1464 -6.6678 0.0000 0.0000 1.3887 -15.3764 -45.4549 11.0891 7.1250 -0.0000 -0.0000 40.0405 -73.1504 -27.8659
5.1661 16.2384 -0.4076 77.3917 -88.3108 -66.5915 0.0000 0.0000 0.0000 -16.0101 -29.9342 -4.0442 1.0909 6.6375 18.6459 -1.6069 23.1906 -17.6341 0.0207 0.9278 2.5501 0.0000 0.0000 0.0000 13.5348 22.8356 -9.1365 -1.2852 -7.1837 20.2608 -0.4072 -13.6101 -23.4959 -0.0846 -1.8756 5.1619 -4.3110 -1.1271 -2.0905 0.8092 -1.5245 -3.4388 3.2476 -0.6729 -2.2371 -4.7043 -5.7629 -1.0227 -2.7249 -7.6920 19.4316 -0.5412 -4.4681 6.1464 0.0000 0.0000 0.0000 -94.1290 15.3952 12.4873 23.1656 -34.2694 -7.2313 -0.0000 -0.0000 10.8763 23.8282 -10.2666 -4.5007 -7.1250 0.0000 -0.0000 -2.2655 18.7845 1.4165 0.0000 0.0000 0.0000 88.3965 -18.1625 28.5605 -22.1806 33.1806 -6.6844 0.0000 0.0000 1.9645 -13.8352 -45.7223 9.9999 7.1250 -0.0000 -0.0000 42.2661 -72.7756 -29.2349
5.1738 16.2368 -0.4153 74.4802 -88.2413 -63.6448 0.0000 0.0000 0.0000 -15.9653 -29.8321 -4.1674 1.0871 6.6266 18.6138 -1.5985 23.0744 -17.3776 0.0125 0.7233 1.9877 0.0000 0.0000 0.0000 13.4942 22.7385 -9.2698 -1.2929 -7.2043 20.3221 -0.4027 -13.6186 -23.4650 -0.0739 -1.7542 4.8268 -4.2911 -1.1011 -1.9528 0.7931 -1.4916 -3.3479 3.2217 -0.6575 -2.2239 -4.7252 -5.7730 -1.3117 -2.6291 -7.6966 19.5465 -0.5216 -4.4642 6.2373 -0.0000 -0.0000 0.0000 -94.0248 15.1394 12.6064 23.1454 -34.2475 -7.2200 -0.0000 -0.0000 10.6877 24.1225 -10.5869 -4.7032 -7.1250 0.0000 -0.0000 -2.0715 18.4104 1.3121 -0.0000 -0.0000 0.0000 88.3327 -18.0636 28.5438 -22.2622 33.2721 -6.7291 0.0000 0.0000 2.0202 -13.5467 -46.1000 9.8490 7.1250 -0.0000 -0.0000 43.5009 -72.9221 -30.3004
5.1815 16.2362 -0.4212 71.4143 -88.1638 -60.5206 0.0000 0.0000 0.0000 -15.9105 -29.8263 -4.3246 1.0860 6.6233 18.6041 -1.5850 22.9776 -17.2848 0.0126 0.7250 1.9925 0.0000 0.0000 0.0000 13.4447 22.6717 -9.4111 -1.2988 -7.2203 20.3696 -0.4047 -13.6311 -23.4968 -0.0809 -1.8348 5.0494 -4.3385 -1.1713 -1.9462 0.8295 -1.5793 -3.2298 3.2838 -0.7036 -2.0956 -4.6924 -5.7042 -1.6071 -2.6904 -7.5762 19.7426 -0.5544 -4.4118 6.3455 -0.0000 -0.0000 0.0000 -94.1287 14.9426 12.3408 23.2577 -34.3694 -7.2833 -0.0000 -0.0000 10.7065 24.3759 -10.8032 -4.8544 -7.1250 0.0000 -0.0000 -1.9032 18.1517 1.2162 -0.0000 -0.0000 0.0000 88.1029 -17.8700 28.9238 -22.3030 33.3178 -6.7515 0.0000 0.0000 1.8325 -14.3583 -45.7217 10.3854 7.1250 -0.0000 -0.0000 41.7421 -72.9639 -28.9974
5.1904 16.2363 -0.4292 69.0836 -88.1212 -58.1276 0.0000 0.0000 0.0000 -15.8063 -29.9228 -4.4801 1.0881 6.6295 18.6222 -1.5629 22.8782 -17.3436 0.0160 0.8170 2.2455 0.0000 0.0000 0.0000 13.4279 22.6379 -9.5393 -1.3019 -7.2285 20.3940 -0.4237 -13.5362 -23.5601 -0.1046 -2.0851 5.7409 -4.4778 -1.3063 -1.8688 0.9625 -1.7615 -3.2635 3.5010 -0.7883 -2.1507 -4.8051 -5.5124 -1.3790 -2.7567 -7.3199 19.7777 -0.5344 -4.3068 6.3170 -0.0000 0.0000 0.0000 -94.5477 15.1909 11.5947 23.5641 -34.6999 -7.4569 -0.0000 -0.0000 10.9645 24.6779 -10.8685 -4.9516 -7.1250 0.0000 -0.0000 -1.6938 18.0519 1.0861 -0.0000 0.0000 0.0000 87.6866 -17.8911 29.5138 -22.1999 33.2022 -6.6950 0.0000 0.0000 1.8501 -14.7112 -45.5097 10.6084 7.1250 -0.0000 -0.0000 40.8577 -72.9473 -28.3155
5.1978 16.2359 -0.4380 66.8905 -88.1577 -55.8896 0.0000 0.0000 0.0000 -15.6378 -29.9542 -4.6124 1.0919 6.6406 18.6548 -1.5421 22.7776 -17.3748 0.0134 0.7475 2.0543 0.0000 0.0000 0.0000 13.5023 22.5795 -9.6389 -1.3031 -7.2316 20.4035 -0.4277 -13.4903 -23.5442 -0.1074 -2.1131 5.8183 -4.4627 -1.3190 -1.8224 1.0319 -1.7759 -3.1873 3.5641 -0.7968 -2.0948 -4.9048 -5.3950 -1.4897 -2.6896 -7.1594 19.9429 -0.4956 -4.2362 6.3939 -0.0000 -0.0000 0.0000 -94.7392 15.2300 11.2069 23.8352 -34.9895 -7.6118 -0.0000 -0.0000 11.1345 24.8488 -10.8181 -4.9676 -7.1250 0.0000 -0.0000 -1.5711 18.0906 1.0059 -0.0000 -0.0000 0.0000 87.4720 -17.8119 29.7462 -22.1855 33.1860 -6.6871 0.0000 0.0000 1.9603 -14.7280 -45.7220 10.6585 7.1250 -0.0000 -0.0000 41.3712 -73.0981 -28.8284
5.2007 16.2358 -0.4477 65.1893 -88.1873 -54.1560 0.0000 0.0000 0.0000 -15.5167 -29.9568 -4.6823 1.0950 6.6496 18.6814 -1.5358 22.7446 -17.3765 0.0117 0.6974 1.9165 0.0000 0.0000 0.0000 13.5758 22.5371 -9.7195 -1.3049 -7.2365 20.4179 -0.4081 -13.5658 -23.4533 -0.0981 -2.0200 5.5610 -4.2954 -1.1779 -1.8928 0.9403 -1.5771 -2.9637 3.3710 -0.7098 -1.8484 -4.7875 -5.6083 -2.0232 -2.7099 -7.4134 20.1898 -0.5617 -4.3514 6.5627 0.0000 0.0000 0.0000 -94.4875 14.8753 11.3115 23.8791 -35.0361 -7.6370 -0.0000 -0.0000 11.2281 24.6333 -11.0201 -5.0092 -7.1250 0.0000 -0.0000 -1.7330 17.8908 1.1174 0.0000 0.0000 0.0000 87.6601 -17.6193 29.4022 -22.3591 33.3805 -6.7824 0.0000 0.0000 1.8730 -14.8874 -45.6976 10.7721 7.1250 -0.0000 -0.0000 41.1487 -73.1395 -28.6942
5.2001 16.2355 -0.4578 65.0217 -88.1438 -54.0197 0.0000 0.0000 0.0000 -15.5575 -29.9476 -4.6245 1.0953 6.6506 18.6842 -1.5326 22.7352 -17.4010 0.0132 0.7424 2.0403 0.0000 0.0000 0.0000 13.5812 22.4356 -9.7384 -1.3091 -7.2477 20.4512 -0.4016 -13.5652 -23.3941 -0.0925 -1.9612 5.3983 -4.2432 -1.0913 -1.8283 0.8321 -1.4645 -2.9286 3.2317 -0.6554 -1.8620 -4.4810 -5.6806 -2.1879 -2.8512 -7.5133 20.5571 -0.6774 -4.3983 6.6913 -0.0000 -0.0000 0.0000 -94.3287 14.9856 11.0950 23.9617 -35.1237 -7.6845 -0.0000 -0.0000 11.4312 24.5908 -11.4736 -5.2015 -7.1250 0.0000 -0.0000 -1.7869 17.4003 1.1713 -0.0000 -0.0000 0.0000 87.7883 -17.8205 29.2926 -22.5724 33.6179 -6.9001 0.0000 0.0000 1.6317 -14.6514 -45.7018 10.5984 7.1250 -0.0000 -0.0000 41.3975 -73.0567 -28.8139
5.2014 16.2347 -0.4652 64.1029 -88.0434 -53.0928 0.0000 0.0000 0.0000 -15.6173 -29.9347 -4.6249 1.0929 6.6436 18.6637 -1.5440 22.7511 -17.2485 0.0088 0.6048 1.6619 0.0000 0.0000 0.0000 13.5206 22.3184 -9.8048 -1.3153 -7.2642 20.5004 -0.4080 -13.5431 -23.4264 -0.0878 -1.9117 5.2617 -4.3120 -1.1581 -1.6182 0.8230 -1.5698 -3.1071 3.2680 -0.6981 -2.1543 -4.4228 -5.4264 -1.4339 -2.7163 -7.2510 20.3208 -0.5940 -4.2597 6.4840 -0.0000 0.0000 0.0000 -94.4680 15.6568 10.5192 24.3544 -35.5368 -7.9116 -0.0000 -0.0000 11.4026 24.8330 -11.7443 -5.3810 -7.1250 0.0000 -0.0000 -1.6330 17.0804 1.0818 -0.0000 0.0000 0.0000 87.5710 -18.3071 29.7889 -22.7351 33.7979 -6.9904 0.0000 0.0000 1.4588 -14.2760 -45.9132 10.3575 7.1250 -0.0000 -0.0000 42.3080 -73.0628 -29.5106
5.2121 16.2351 -0.4721 60.1989 -87.9170 -49.0430 0.0000 0.0000 0.0000 -15.4891 -29.9768 -4.8851 1.0890 6.6320 18.6295 -1.5435 22.6711 -16.9736 0.0052 0.4650 1.2778 0.0000 0.0000 0.0000 13.4324 22.2668 -10.0609 -1.3232 -7.2850 20.5626 -0.4160 -13.5404 -23.4952 -0.1032 -2.0714 5.7030 -4.3097 -1.2315 -1.4605 0.8300 -1.6784 -3.2043 3.2793 -0.7470 -2.3339 -4.3244 -5.2504 -1.4932 -2.7688 -7.0101 20.4798 -0.6173 -4.1463 6.5366 -0.0000 0.0000 0.0000 -94.6084 16.0836 9.9778 24.9310 -36.1334 -8.2492 -0.0000 -0.0000 11.2041 24.6784 -12.0709 -5.4887 -7.1250 0.0000 -0.0000 -1.7595 16.7405 1.1787 -0.0000 0.0000 0.0000 87.4141 -18.5204 30.0451 -22.9057 33.9855 -7.0855 0.0000 0.0000 1.4137 -14.2401 -45.6603 10.2877 7.1250 -0.0000 -0.0000 41.7075 -72.8798 -28.9006
5.2236 16.2371 -0.4792 56.2560 -87.8172 -45.0060 0.0000 0.0000 0.0000 -15.3254 -30.0603 -5.0888 1.0835 6.6160 18.5825 -1.5096 22.4746 -16.9224 0.0075 0.5607 1.5407 0.0000 0.0000 0.0000 13.4093 22.2100 -10.2695 -1.3330 -7.3110 20.6401 -0.4305 -13.4739 -23.5509 -0.1209 -2.2420 6.1750 -4.2643 -1.2246 -1.3779 0.8444 -1.6687 -3.1286 3.2694 -0.7441 -2.3033 -4.3091 -5.2704 -1.8581 -2.8056 -7.0091 20.7235 -0.6499 -4.1507 6.6766 -0.0000 -0.0000 0.0000 -94.7728 16.1399 9.3792 25.4766 -36.6872 -8.5730 -0.0000 -0.0000 11.3203 24.3643 -12.4824 -5.5905 -7.1250 0.0000 -0.0000 -2.0012 16.3263 1.3588 -0.0000 -0.0000 0.0000 87.3397 -18.5375 29.9103 -23.1544 34.2572 -7.2250 0.0000 0.0000 1.3863 -14.2391 -45.4900 10.2576 7.1250 -0.0000 -0.0000 41.2874 -72.7637 -28.4865
5.2269 16.2382 -0.4864 54.2755 -87.7228 -43.0796 0.0000 0.0000 0.0000 -15.3122 -29.9749 -5.0983 1.0785 6.6011 18.5387 -1.4530 22.1735 -16.9444 0.0124 0.7201 1.9790 0.0000 0.0000 0.0000 13.4442 22.1155 -10.2422 -1.3419 -7.3344 20.7100 -0.4595 -13.3824 -23.7064 -0.1337 -2.3572 6.4939 -4.2535 -1.2193 -1.2353 0.8605 -1.6640 -3.0563 3.2824 -0.7418 -2.3088 -4.3082 -5.2305 -1.7966 -2.8731 -6.9509 20.8022 -0.6677 -4.1312 6.6884 0.0000 0.0000 0.0000 -95.0065 16.1750 8.4937 25.8249 -37.0353 -8.7820 -0.0000 -0.0000 11.5659 24.4309 -12.7596 -5.7294 -7.1250 0.0000 -0.0000 -1.9715 16.0179 1.3518 0.0000 0.0000 0.0000 87.1183 -18.6517 30.0530 -23.3792 34.5009 -7.3520 0.0000 0.0000 1.2018 -14.4113 -45.5800 10.3999 7.1250 -0.0000 -0.0000 41.3357 -72.8870 -28.6258
